<?xml version="1.0" encoding="UTF-8"?>
<!DOCTYPE svg PUBLIC "-//W3C//DTD SVG 1.1//EN" "http://www.w3.org/Graphics/SVG/1.1/DTD/svg11.dtd">
<!-- Creator: CorelDRAW 2019 (64-Bit) -->
<svg xmlns="http://www.w3.org/2000/svg" xml:space="preserve" width="28px" height="28px" version="1.1" style="shape-rendering:geometricPrecision; text-rendering:geometricPrecision; image-rendering:optimizeQuality; fill-rule:evenodd; clip-rule:evenodd"
viewBox="0 0 28 28"
 xmlns:xlink="http://www.w3.org/1999/xlink">
 <defs>
  <style type="text/css">
   <![CDATA[
    .fil2 {fill:none}
    .fil1 {fill:#434242}
    .fil0 {fill:#F5B2B6}
   ]]>
  </style>
   <clipPath id="id0">
    <path d="M14 0c7.73,0 14,6.27 14,14 0,7.73 -6.27,14 -14,14 -7.73,0 -14,-6.27 -14,-14 0,-7.73 6.27,-14 14,-14z"/>
   </clipPath>
 </defs>
 <g id="Слой_x0020_1">
  <metadata id="CorelCorpID_0Corel-Layer"/>
  <path class="fil0" d="M14 0c7.73,0 14,6.27 14,14 0,7.73 -6.27,14 -14,14 -7.73,0 -14,-6.27 -14,-14 0,-7.73 6.27,-14 14,-14z"/>
  <g style="clip-path:url(#id0)">
   <g id="_2711585185248">
    <g>
     <path id="1" class="fil1" d="M7.63 16.91c-0.16,0.09 -0.4,0.24 -0.62,0.29 -0.17,0.12 -0.35,0.23 -0.53,0.38 -0.17,0.15 -0.27,0.32 -0.44,0.44 -0.12,0.22 -0.3,0.42 -0.46,0.69 -0.15,0.25 -0.27,0.51 -0.41,0.76 -0.05,0.19 -0.16,0.43 -0.24,0.66 -0.08,0.23 -0.16,0.48 -0.2,0.71 -0.03,0.16 -0.13,0.67 -0.21,0.78l-0.18 2.16c-0.03,0.69 -0.05,1.43 0.16,2.05 0.36,1.08 1.24,1.97 2.44,2.19 1.43,0.23 7.95,0.04 10.01,0.09 1.05,0.02 2.34,0.05 3.37,0 0.32,0 0.68,-0.08 0.96,-0.15 0.35,-0.1 0.53,-0.23 0.82,-0.33 0.09,-0.11 0.45,-0.36 0.58,-0.49 0.16,-0.15 0.32,-0.37 0.46,-0.54 0.24,-0.44 0.47,-0.89 0.5,-1.52 0.12,-1.21 -0.08,-3.16 -0.41,-4.36 -0.17,-0.64 -0.3,-0.87 -0.4,-1.23 -0.2,-0.5 -0.6,-1.14 -0.93,-1.52 -0.58,-0.66 -1.46,-1.17 -2.45,-1.26 -0.56,-0.06 -0.61,-0.05 -0.99,0.2 -0.27,0.17 -1.28,0.85 -1.49,0.92 -0.2,0.16 -0.93,0.42 -1.27,0.51 -0.21,0.07 -0.47,0.16 -0.71,0.13l-0.29 0.08c-0.08,0.02 -0.16,0.02 -0.25,0.03l-1.35 -0.05 -0.34 -0.11c-0.3,0.03 -1.21,-0.34 -1.48,-0.46 -0.32,-0.12 -1.25,-0.7 -1.41,-0.85 -0.39,-0.2 -0.47,-0.44 -1.05,-0.42 -0.51,0.02 -0.75,0.13 -1.19,0.22z"/>
     <path class="fil1" d="M13.21 7.01c-0.06,0.05 0.03,0.01 -0.11,0.06 -0.07,0.02 -0.01,0 -0.08,0.02 -0.08,0.02 -0.13,0.02 -0.2,0.03 -0.27,0.07 -0.55,0.15 -0.78,0.24 -0.15,0.06 -0.23,0.09 -0.37,0.16 -0.18,0.09 -0.19,0.14 -0.36,0.16l-0.23 0.21c-0.97,0.63 -1.28,1.28 -1.51,1.44 -0.03,0.09 0,0.01 -0.04,0.1 0,0 -0.04,0.09 -0.04,0.09 -0.38,0.66 -0.29,0.55 -0.58,1.26 -0.11,0.71 -0.22,1.09 -0.18,1.88 0.02,0.28 0.08,0.61 0.13,0.88 0.05,0.23 0.18,0.51 0.22,0.74 0.05,0.07 0.28,0.58 0.51,0.93 0.57,0.83 1.41,1.58 2.41,1.97 0.12,0.04 0.18,0.07 0.31,0.12 0.04,0.01 0.1,0.02 0.15,0.04l0.17 0.1c0.36,-0.04 1.88,0.47 3.53,-0.33 0.16,-0.07 0.31,-0.15 0.45,-0.23 0.2,-0.1 0.27,-0.21 0.45,-0.25 0.08,-0.11 0.1,-0.12 0.2,-0.2 0.88,-0.72 1.12,-1.28 1.28,-1.41 0.02,-0.04 0.38,-0.76 0.39,-0.77 0.04,-0.23 0.13,-0.43 0.19,-0.67l0.16 -0.64 -0.02 -0.52 -0.04 -0.96c-0.04,-0.27 -0.09,-0.51 -0.17,-0.75 -0.09,-0.28 -0.18,-0.46 -0.27,-0.7 -0.12,-0.22 -0.26,-0.45 -0.39,-0.66 -0.08,-0.11 -0.13,-0.2 -0.22,-0.31 -0.12,-0.15 -0.16,-0.12 -0.21,-0.28l-0.48 -0.48c-0.16,-0.06 -0.39,-0.28 -0.56,-0.4l-0.58 -0.39c-0.17,-0.02 -0.51,-0.18 -0.71,-0.24 -0.22,-0.07 -0.51,-0.16 -0.75,-0.17 -0.12,-0.02 -0.2,-0.03 -0.33,-0.04 -0.08,-0.01 -0.11,-0.01 -0.19,-0.03 -0.09,-0.02 -0.06,-0.01 -0.11,-0.04l-1.04 0.04z"/>
    </g>
   </g>
  </g>
  <path class="fil2" d="M14 0c7.73,0 14,6.27 14,14 0,7.73 -6.27,14 -14,14 -7.73,0 -14,-6.27 -14,-14 0,-7.73 6.27,-14 14,-14z"/>
 </g>
</svg>
