<?xml version="1.0" encoding="UTF-8"?>
<!DOCTYPE svg PUBLIC "-//W3C//DTD SVG 1.1//EN" "http://www.w3.org/Graphics/SVG/1.1/DTD/svg11.dtd">
<!-- Creator: CorelDRAW 2019 (64-Bit) -->
<svg xmlns="http://www.w3.org/2000/svg" xml:space="preserve" width="19px" height="14px" version="1.1" style="shape-rendering:geometricPrecision; text-rendering:geometricPrecision; image-rendering:optimizeQuality; fill-rule:evenodd; clip-rule:evenodd"
viewBox="0 0 19 14.71"
 xmlns:xlink="http://www.w3.org/1999/xlink">
 <defs>
  <style type="text/css">
   <![CDATA[
    .fil0 {fill:#5B5B5B;fill-rule:nonzero}
   ]]>
  </style>
 </defs>
 <g id="Слой_x0020_1">
  <metadata id="CorelCorpID_0Corel-Layer"/>
  <g id="_2711160215632">
   <g>
    <path class="fil0" d="M16.1 1.23c-1.23,-0.57 -2.55,-0.99 -3.92,-1.23 -0.17,0.3 -0.37,0.72 -0.51,1.04 -1.46,-0.22 -2.91,-0.22 -4.34,0 -0.14,-0.32 -0.34,-0.74 -0.51,-1.04 -1.38,0.24 -2.69,0.66 -3.92,1.23 -2.49,3.75 -3.16,7.41 -2.82,11.02 1.64,1.22 3.24,1.97 4.81,2.46 0.38,-0.53 0.73,-1.1 1.03,-1.7 -0.57,-0.21 -1.11,-0.48 -1.62,-0.79 0.13,-0.1 0.26,-0.2 0.39,-0.31 3.13,1.46 6.53,1.46 9.62,0 0.13,0.11 0.26,0.21 0.39,0.31 -0.51,0.31 -1.05,0.58 -1.62,0.79 0.3,0.6 0.64,1.17 1.03,1.7 1.57,-0.49 3.17,-1.23 4.81,-2.46 0.4,-4.18 -0.67,-7.81 -2.82,-11.02zm-9.76 8.8c-0.94,0 -1.7,-0.88 -1.7,-1.95 0,-1.06 0.75,-1.94 1.7,-1.94 0.96,0 1.73,0.88 1.71,1.94 0,1.07 -0.75,1.95 -1.71,1.95zm6.32 0c-0.94,0 -1.71,-0.88 -1.71,-1.95 0,-1.06 0.75,-1.94 1.71,-1.94 0.95,0 1.72,0.88 1.7,1.94 0,1.07 -0.75,1.95 -1.7,1.95z"/>
   </g>
  </g>
 </g>
</svg>
