<?xml version="1.0" encoding="UTF-8"?>
<!DOCTYPE svg PUBLIC "-//W3C//DTD SVG 1.1//EN" "http://www.w3.org/Graphics/SVG/1.1/DTD/svg11.dtd">
<!-- Creator: CorelDRAW 2019 (64-Bit) -->
<svg xmlns="http://www.w3.org/2000/svg" xml:space="preserve" width="28px" height="28px" version="1.1" style="shape-rendering:geometricPrecision; text-rendering:geometricPrecision; image-rendering:optimizeQuality; fill-rule:evenodd; clip-rule:evenodd"
viewBox="0 0 28 28"
 xmlns:xlink="http://www.w3.org/1999/xlink">
 <defs>
  <style type="text/css">
   <![CDATA[
    .fil2 {fill:none}
    .fil1 {fill:#434242}
    .fil0 {fill:#F5B2B6}
   ]]>
  </style>
   <clipPath id="id0">
    <path d="M14 0c7.73,0 14,6.27 14,14 0,7.73 -6.27,14 -14,14 -7.73,0 -14,-6.27 -14,-14 0,-7.73 6.27,-14 14,-14z"/>
   </clipPath>
 </defs>
 <g id="Слой_x0020_1">
  <metadata id="CorelCorpID_0Corel-Layer"/>
  <path class="fil0" d="M14 0c7.73,0 14,6.27 14,14 0,7.73 -6.27,14 -14,14 -7.73,0 -14,-6.27 -14,-14 0,-7.73 6.27,-14 14,-14z"/>
  <g style="clip-path:url(#id0)">
   <g id="_2711393533200">
    <g>
     <path id="1" class="fil1" d="M14.34 22.96c-1.08,0 -8.1,-0.07 -8.1,-1.03 0,-0.64 3.96,-1.03 4.73,-1.03 0.44,0 0.64,-0.06 1.09,-0.05l3.31 -0.06 3.08 0.17c0.84,0.04 1.97,0.25 2.79,0.47 0.36,0.1 0.47,0.13 0.63,0.44 -0.84,0.97 -6.47,1.09 -7.53,1.09zm-8.9 -5.14c0,-0.55 -0.08,-0.55 0.46,-0.97 0.28,-0.21 0.53,-0.43 0.87,-0.61 2.32,-1.23 4.86,-1.5 7.69,-1.5 2.75,0 5.6,0.47 7.7,2.06 0.35,0.26 0.46,0.36 0.46,0.97 -0.26,-0.18 -0.44,-0.36 -0.72,-0.54 -0.16,-0.1 -0.24,-0.13 -0.4,-0.23 -2.91,-1.73 -9.28,-1.68 -12.55,-0.86l-1.43 0.45c-0.19,0.08 -0.28,0.14 -0.47,0.21 -0.72,0.29 -1.09,0.67 -1.61,1.02zm-6.05 -1.65c0.11,0.14 0.51,0.33 0.71,0.44 0.25,0.14 0.47,0.28 0.72,0.41 1.38,0.75 2.98,1.77 4.39,2.51l0.02 2.14c0.01,0.47 -0.08,0.69 1.02,1.11 0.38,0.14 0.74,0.2 1.17,0.32 0.75,0.19 1.67,0.3 2.52,0.38 2.36,0.19 4.26,0.22 6.63,0.11 0.26,-0.02 0.35,-0.06 0.68,-0.06 0.27,0 0.45,-0.04 0.73,-0.07 0.76,-0.08 4.58,-0.53 4.88,-1.52 0.08,-0.3 -0.05,0.04 -0.02,-0.58l0 -1.94 2.46 -1.48 0.05 2.28c0,0.21 -0.52,0.27 -0.47,0.89 0.07,1.05 1.56,0.83 1.56,-0.04 0,-0.58 -0.52,-0.63 -0.52,-0.85l0 -2.57c0,-0.18 0.28,-0.25 0.64,-0.45 0.34,-0.2 1.89,-0.99 2.05,-1.2 -0.21,-0.05 -0.29,-0.15 -0.46,-0.23 -1,-0.53 -4.17,-2.13 -5.05,-2.66l-4.55 -2.4c-0.77,-0.38 -4.43,-2.39 -4.61,-2.39 -0.09,0 -1.55,0.83 -1.8,0.96l-2.7 1.47c-0.32,0.17 -0.6,0.33 -0.94,0.49l-8.17 4.43c-0.35,0.18 -0.62,0.33 -0.94,0.5z"/>
     <path class="fil1" d="M24.73 26.27c0.19,-0.13 0.18,-0.19 0.33,-0.36 0.34,-0.4 0.82,-0.77 1.38,-0.5l0 -3.42c-0.66,0.01 -0.32,0.26 -1.43,0l-0.23 3.19c-0.01,0.44 -0.05,0.67 -0.05,1.09z"/>
    </g>
   </g>
  </g>
  <path class="fil2" d="M14 0c7.73,0 14,6.27 14,14 0,7.73 -6.27,14 -14,14 -7.73,0 -14,-6.27 -14,-14 0,-7.73 6.27,-14 14,-14z"/>
 </g>
</svg>
