<?xml version="1.0" encoding="UTF-8"?>
<!DOCTYPE svg PUBLIC "-//W3C//DTD SVG 1.1//EN" "http://www.w3.org/Graphics/SVG/1.1/DTD/svg11.dtd">
<!-- Creator: CorelDRAW 2019 (64-Bit) -->
<svg xmlns="http://www.w3.org/2000/svg" xml:space="preserve" width="28px" height="28px" version="1.1" style="shape-rendering:geometricPrecision; text-rendering:geometricPrecision; image-rendering:optimizeQuality; fill-rule:evenodd; clip-rule:evenodd"
viewBox="0 0 28 28"
 xmlns:xlink="http://www.w3.org/1999/xlink">
 <defs>
  <style type="text/css">
   <![CDATA[
    .fil2 {fill:none}
    .fil1 {fill:#434242}
    .fil0 {fill:#F5B2B6}
   ]]>
  </style>
   <clipPath id="id0">
    <path d="M14 0c7.73,0 14,6.27 14,14 0,7.73 -6.27,14 -14,14 -7.73,0 -14,-6.27 -14,-14 0,-7.73 6.27,-14 14,-14z"/>
   </clipPath>
 </defs>
 <g id="Слой_x0020_1">
  <metadata id="CorelCorpID_0Corel-Layer"/>
  <path class="fil0" d="M14 0c7.73,0 14,6.27 14,14 0,7.73 -6.27,14 -14,14 -7.73,0 -14,-6.27 -14,-14 0,-7.73 6.27,-14 14,-14z"/>
  <g style="clip-path:url(#id0)">
   <g id="_2711284394944">
    <g>
     <path id="1" class="fil1" d="M13.43 12.62c1.55,-0.1 2.9,1.28 2.96,2.77 0.07,1.67 -1.18,2.98 -2.77,3.06 -1.65,0.09 -3.03,-1.25 -3.05,-2.82 -0.03,-1.69 1.22,-2.91 2.86,-3.01zm-4.85 -3.45l-1.48 1.5c0.27,0.78 0.94,1.47 0.53,2.48 -0.42,1.03 -1.16,0.79 -2.1,1.34l-0.02 2.11c0.75,0.36 1.7,0.41 2.1,1.28 0.45,0.98 -0.25,1.79 -0.51,2.54 0.23,0.22 1.26,1.36 1.56,1.5 1.04,-0.61 2.68,-1.18 3.31,0.38 0.16,0.38 0.33,0.88 0.43,1.23l2.17 -0.01c0.97,-3.17 2.01,-2.32 3.76,-1.59 0.3,-0.17 1.33,-1.2 1.53,-1.51 -0.25,-0.82 -1.01,-1.53 -0.49,-2.56 0.42,-0.85 1.23,-0.9 1.82,-1.13 0.36,-0.14 0.13,0.05 0.28,-0.23l-0.01 -1.99c-0.84,-0.58 -1.53,-0.23 -2.09,-1.29 -0.59,-1.12 0.36,-1.76 0.49,-2.65l-1.45 -1.41c-0.79,0.16 -1.5,1.04 -2.59,0.51 -0.67,-0.33 -1.06,-1.32 -1.25,-2.11l-2.15 0c-0.53,0.93 -0.26,1.61 -1.26,2.09 -1.15,0.54 -1.7,-0.28 -2.58,-0.48z"/>
     <path class="fil1" d="M24.03 20.88c0.9,-0.25 1.7,0.33 1.88,1.07 0.25,0.99 -0.4,1.72 -1.11,1.9 -1.9,0.49 -2.8,-2.4 -0.77,-2.97zm-2.3 -1.92l-0.68 0.74c0.1,0.6 1.06,1.57 -0.89,2.07l0.01 1.12c0.48,0.3 0.87,0.2 1.1,0.67 0.25,0.52 -0.06,0.92 -0.23,1.33l0.79 0.86c0.38,-0.17 0.82,-0.48 1.28,-0.28 0.51,0.22 0.46,0.54 0.73,1.09l1.04 0.05c0.37,-0.11 0.13,-0.81 0.77,-1.12 0.22,-0.11 0.48,-0.11 0.73,-0.02 0.22,0.08 0.17,0.09 0.33,0.16 0.14,0.07 0.19,0.08 0.34,0.13l0.77 -0.78c-0.08,-0.24 -0.37,-0.75 -0.37,-0.97 0,-0.83 0.66,-0.74 1.19,-1.12l0.02 -1.14c-1.73,-0.35 -1.16,-1.28 -0.86,-1.97l-0.82 -0.82c-0.42,0.16 -0.89,0.53 -1.37,0.25 -0.4,-0.24 -0.39,-0.69 -0.65,-1.09l-1.12 0c-0.18,0.44 -0.24,0.88 -0.65,1.09 -0.55,0.3 -0.95,-0.12 -1.46,-0.25z"/>
     <path class="fil0" d="M13.43 12.62c-1.64,0.1 -2.89,1.32 -2.86,3.01 0.02,1.57 1.4,2.91 3.05,2.82 1.59,-0.08 2.84,-1.39 2.77,-3.06 -0.06,-1.49 -1.41,-2.87 -2.96,-2.77z"/>
     <path class="fil1" d="M17.13 24.94c1.44,-0.57 2.1,1.58 0.84,2.07 -1.41,0.55 -2.2,-1.52 -0.84,-2.07zm2.72 2.73c0.22,-0.22 0.24,-0.32 0.31,-0.54 -0.22,-0.2 -0.33,-0.24 -0.37,-0.58 0.26,-0.26 0.36,-0.14 0.62,-0.3l-0.01 -0.56c-0.28,-0.16 -0.36,-0.04 -0.61,-0.31 0.05,-0.34 0.17,-0.36 0.37,-0.57 -0.08,-0.23 -0.14,-0.34 -0.31,-0.53 -0.26,0.04 -0.4,0.12 -0.68,0.08 -0.09,-0.36 0.01,-0.38 0.06,-0.76l-0.5 -0.25c-0.28,0.22 -0.69,0.84 -0.86,-0.25l-0.67 0c-0.15,1.11 -0.62,0.41 -0.87,0.25l-0.5 0.24c0.05,0.35 0.15,0.36 0.07,0.71 -0.34,0.14 -0.38,0.04 -0.71,-0.04 -0.09,0.13 -0.22,0.37 -0.28,0.55 0.2,0.2 0.33,0.21 0.36,0.56 -0.32,0.37 -0.41,0.08 -0.63,0.4 -0.2,0.67 0.51,0.55 0.61,0.78 0.06,0.42 -0.17,0.3 -0.34,0.68l0.31 0.44c0.34,-0.07 0.33,-0.17 0.68,-0.03 0.08,0.34 -0.01,0.37 -0.06,0.71l0.51 0.26c0.2,-0.17 0.27,-0.41 0.7,-0.34l0.2 0.58 0.57 0c0.37,-0.7 0.14,-0.85 0.91,-0.24l0.48 -0.28c-0.01,-0.38 -0.13,-0.34 -0.04,-0.68 0.24,-0.12 0.35,-0.06 0.35,-0.06 0.09,0.01 0.24,0.06 0.33,0.08z"/>
     <path class="fil0" d="M24.03 20.88c-2.03,0.57 -1.13,3.46 0.77,2.97 0.71,-0.18 1.36,-0.91 1.11,-1.9 -0.18,-0.74 -0.98,-1.32 -1.88,-1.07z"/>
     <path class="fil0" d="M17.13 24.94c-1.36,0.55 -0.57,2.62 0.84,2.07 1.26,-0.49 0.6,-2.64 -0.84,-2.07z"/>
    </g>
    <g>
     <path class="fil1" d="M-30.4 20.75c-0.89,0 -6.72,-0.05 -6.72,-0.85 0,-0.53 3.28,-0.86 3.93,-0.85 0.36,0 0.53,-0.05 0.9,-0.05l2.75 -0.05 2.55 0.14c0.7,0.04 1.64,0.21 2.32,0.39 0.3,0.08 0.39,0.11 0.53,0.37 -0.7,0.8 -5.38,0.9 -6.26,0.9zm-7.39 -4.26c0,-0.46 -0.06,-0.46 0.38,-0.81 0.23,-0.18 0.45,-0.35 0.73,-0.5 1.93,-1.03 4.03,-1.25 6.38,-1.25 2.29,0 4.65,0.39 6.4,1.7 0.29,0.22 0.37,0.31 0.37,0.81 -0.21,-0.14 -0.36,-0.29 -0.59,-0.45 -0.13,-0.08 -0.2,-0.11 -0.33,-0.19 -2.42,-1.43 -7.71,-1.39 -10.42,-0.71l-1.19 0.37c-0.16,0.07 -0.23,0.12 -0.39,0.18 -0.6,0.24 -0.9,0.56 -1.34,0.85zm-5.02 -1.38c0.09,0.12 0.43,0.28 0.59,0.37 0.21,0.12 0.39,0.23 0.6,0.34 1.14,0.62 2.47,1.47 3.65,2.09l0.01 1.77c0.01,0.39 -0.07,0.58 0.84,0.92 0.32,0.12 0.62,0.17 0.97,0.27 0.63,0.16 1.39,0.25 2.1,0.31 1.96,0.17 3.54,0.19 5.5,0.09 0.22,-0.01 0.3,-0.04 0.57,-0.04 0.22,-0.01 0.38,-0.04 0.61,-0.06 0.63,-0.07 3.8,-0.44 4.04,-1.26 0.08,-0.25 -0.03,0.03 -0.01,-0.48l0 -1.62 2.04 -1.23 0.05 1.9c0,0.17 -0.44,0.22 -0.4,0.74 0.07,0.87 1.3,0.69 1.3,-0.03 0,-0.49 -0.43,-0.53 -0.43,-0.71l0 -2.13c0,-0.16 0.23,-0.21 0.53,-0.38 0.28,-0.16 1.57,-0.82 1.7,-1 -0.17,-0.04 -0.24,-0.12 -0.38,-0.19 -0.83,-0.43 -3.46,-1.77 -4.19,-2.2l-3.79 -2c-0.63,-0.31 -3.67,-1.98 -3.82,-1.98 -0.07,0 -1.28,0.69 -1.5,0.8l-2.24 1.21c-0.27,0.14 -0.5,0.28 -0.77,0.41l-6.79 3.68c-0.29,0.15 -0.51,0.27 -0.78,0.41z"/>
     <path class="fil1" d="M-21.77 23.5c0.15,-0.11 0.15,-0.16 0.27,-0.3 0.29,-0.33 0.68,-0.64 1.15,-0.41l0 -2.84c-0.55,0.01 -0.26,0.21 -1.19,0l-0.19 2.65c-0.01,0.36 -0.04,0.55 -0.04,0.9z"/>
    </g>
   </g>
  </g>
  <path class="fil2" d="M14 0c7.73,0 14,6.27 14,14 0,7.73 -6.27,14 -14,14 -7.73,0 -14,-6.27 -14,-14 0,-7.73 6.27,-14 14,-14z"/>
 </g>
</svg>
