<?xml version="1.0" encoding="UTF-8"?>
<!DOCTYPE svg PUBLIC "-//W3C//DTD SVG 1.1//EN" "http://www.w3.org/Graphics/SVG/1.1/DTD/svg11.dtd">
<!-- Creator: CorelDRAW 2019 (64-Bit) -->
<svg xmlns="http://www.w3.org/2000/svg" xml:space="preserve" width="17px" height="17px" version="1.1" style="shape-rendering:geometricPrecision; text-rendering:geometricPrecision; image-rendering:optimizeQuality; fill-rule:evenodd; clip-rule:evenodd"
viewBox="0 0 17 17.04"
 xmlns:xlink="http://www.w3.org/1999/xlink">
 <defs>
  <style type="text/css">
   <![CDATA[
    .fil0 {fill:#5B5B5B}
   ]]>
  </style>
 </defs>
 <g id="Слой_x0020_1">
  <metadata id="CorelCorpID_0Corel-Layer"/>
  <path class="fil0" d="M16.55 12.51l-2.37 -2.38c-0.85,-0.85 -2.3,-0.51 -2.64,0.59 -0.25,0.77 -1.1,1.19 -1.86,1.02 -1.7,-0.42 -3.99,-2.63 -4.42,-4.41 -0.25,-0.77 0.26,-1.62 1.02,-1.87 1.1,-0.34 1.44,-1.79 0.6,-2.63l-2.38 -2.38c-0.68,-0.6 -1.7,-0.6 -2.29,0l-1.62 1.61c-1.61,1.7 0.17,6.2 4.16,10.19 3.99,3.99 8.49,5.86 10.19,4.16l1.61 -1.61c0.6,-0.68 0.6,-1.7 0,-2.29z"/>
 </g>
</svg>
